<svg width="17" height="15" viewBox="0 0 17 15" fill="none" xmlns="http://www.w3.org/2000/svg">
<path d="M0.583313 1.75001C0.583313 0.875554 1.2922 0.166672 2.16665 0.166672H14.8333C15.7078 0.166672 16.4166 0.875554 16.4166 1.75001V10.4583C16.4166 11.3328 15.7078 12.0417 14.8333 12.0417H11.2029L9.05977 14.1848C8.75061 14.494 8.24935 14.494 7.94019 14.1848L5.79706 12.0417H2.16665C1.2922 12.0417 0.583313 11.3328 0.583313 10.4583V1.75001ZM14.8333 1.75001H2.16665V10.4583H6.12498C6.33494 10.4583 6.53631 10.5417 6.68477 10.6902L8.49998 12.5054L10.3152 10.6902C10.4637 10.5417 10.665 10.4583 10.875 10.4583H14.8333V1.75001ZM3.74998 4.52084C3.74998 4.08361 4.10442 3.72917 4.54165 3.72917H12.4583C12.8955 3.72917 13.25 4.08361 13.25 4.52084C13.25 4.95806 12.8955 5.31251 12.4583 5.31251H4.54165C4.10442 5.31251 3.74998 4.95806 3.74998 4.52084ZM3.74998 7.68751C3.74998 7.25028 4.10442 6.89584 4.54165 6.89584H9.29165C9.72887 6.89584 10.0833 7.25028 10.0833 7.68751C10.0833 8.12473 9.72887 8.47917 9.29165 8.47917H4.54165C4.10442 8.47917 3.74998 8.12473 3.74998 7.68751Z" fill="#0D0D0D"/>
</svg>
